<?xml version="1.0" standalone="no"?>
<!DOCTYPE svg PUBLIC "-//W3C//DTD SVG 20010904//EN"
 "http://www.w3.org/TR/2001/REC-SVG-20010904/DTD/svg10.dtd">
<svg version="1.0" xmlns="http://www.w3.org/2000/svg"
 width="300.000000pt" height="300.000000pt" viewBox="0 0 300.000000 300.000000"
 preserveAspectRatio="xMidYMid meet">
<metadata>
Created by potrace 1.11, written by Peter Selinger 2001-2013
</metadata>
<g transform="translate(0.000000,300.000000) scale(0.100000,-0.100000)"
fill="#000000" stroke="none">
<path d="M1680 2981 c-49 -26 -51 -59 -7 -88 19 -12 37 -30 39 -41 5 -18 1
-19 -33 -16 -47 4 -186 -35 -283 -80 -52 -25 -104 -39 -186 -51 -63 -10 -143
-28 -177 -41 -69 -26 -187 -99 -219 -135 -30 -35 -110 -168 -134 -223 -23 -56
-26 -73 -4 -33 12 23 18 26 30 16 8 -6 14 -24 14 -40 0 -24 5 -30 38 -38 58
-15 133 -23 249 -26 115 -3 215 -31 276 -76 27 -20 34 -20 106 -10 42 7 199
16 349 21 150 6 283 12 296 16 13 3 27 1 30 -4 3 -6 14 -8 24 -6 37 10 136
-25 172 -61 l35 -35 6 -123 5 -122 2 118 c2 128 -2 144 -52 187 -26 23 -34 41
-45 97 -21 109 -77 323 -106 398 -27 72 -81 165 -95 165 -5 0 -11 8 -13 18 -4
15 -5 16 -6 0 -1 -14 -5 -13 -26 7 -32 33 -50 32 -29 -1 25 -38 4 -54 -39 -29
-51 30 -60 51 -24 58 12 2 -11 5 -50 6 l-73 1 -20 39 c-11 22 -33 49 -50 61
-16 12 -30 26 -30 31 0 6 18 18 40 27 22 9 40 20 40 25 0 11 -13 8 -50 -12z
m-102 -193 c-14 -20 -62 -36 -198 -64 -23 -5 -23 -4 5 13 40 23 165 72 189 72
17 1 17 -1 4 -21z m-308 -93 c0 -2 -25 -16 -57 -31 -50 -24 -57 -25 -68 -11
-9 12 -19 14 -48 7 -20 -4 -37 -4 -37 0 0 5 33 14 73 20 39 7 77 14 82 15 16
5 55 5 55 0z m-435 -175 c-16 -16 -31 -28 -33 -25 -7 7 39 55 52 55 5 0 -3
-13 -19 -30z m510 -170 c-3 -5 -20 -10 -36 -10 -18 0 -28 4 -24 10 3 6 20 10
36 10 18 0 28 -4 24 -10z m428 -70 c-6 -24 -33 -49 -33 -31 0 18 19 51 29 51
5 0 7 -9 4 -20z"/>
<path d="M1855 2985 c40 -16 171 -45 200 -45 46 0 44 -14 -5 -46 -22 -15 -40
-31 -40 -36 0 -10 50 21 87 55 28 25 21 37 -23 37 -19 0 -67 9 -106 20 -60 17
-148 28 -113 15z"/>
<path d="M585 2200 c-11 -5 -37 -9 -57 -9 -37 -1 -56 -21 -20 -21 14 -1 12 -4
-8 -21 -14 -11 -33 -27 -42 -34 -13 -11 -18 -29 -18 -65 0 -46 4 -54 48 -100
30 -31 60 -52 80 -56 l31 -6 -24 -43 c-14 -23 -25 -49 -25 -57 0 -8 -37 -54
-83 -100 -58 -60 -92 -88 -115 -93 -32 -7 -33 -8 -17 -25 16 -18 15 -22 -24
-76 -59 -83 -54 -92 28 -49 39 20 75 34 81 30 7 -4 27 7 46 26 l34 33 0 -41
c0 -46 11 -60 30 -38 25 30 39 17 21 -19 -9 -18 -21 -31 -28 -29 -7 3 -15 -7
-18 -24 -3 -15 -8 -37 -10 -48 -7 -29 13 -140 37 -217 23 -74 87 -161 150
-203 38 -25 198 -76 301 -94 107 -19 371 -33 548 -29 161 5 181 7 265 35 49
17 116 45 146 62 59 34 174 147 225 222 79 117 143 307 143 423 0 47 24 159
40 189 15 25 -5 21 -23 -5 -14 -23 -15 -22 -24 22 -9 45 -9 45 -22 20 -7 -14
-23 -33 -35 -42 -11 -9 -18 -19 -15 -22 3 -4 18 3 32 15 33 25 35 10 5 -35
-24 -36 -68 -55 -68 -29 0 8 5 11 11 7 7 -4 10 1 7 12 -4 22 -32 30 -62 16
-30 -13 -128 -33 -211 -42 -38 -4 -83 -11 -98 -15 -18 -5 -37 -3 -52 5 -18 10
-31 10 -56 1 -46 -16 -52 -14 -29 9 11 11 35 21 53 21 18 1 24 3 12 5 -11 3
-38 9 -60 15 -33 8 -56 6 -124 -11 -45 -12 -85 -19 -88 -17 -2 3 -19 -1 -38
-8 -18 -8 -35 -11 -39 -8 -14 15 -4 30 30 42 19 7 33 15 30 18 -3 3 -33 -4
-66 -16 -33 -12 -66 -19 -73 -14 -6 4 -44 8 -82 8 -50 0 -79 5 -98 18 -14 9
-32 17 -39 17 -7 0 -1 -8 15 -18 33 -21 35 -32 3 -32 -13 0 -32 -3 -42 -7 -14
-5 -16 -3 -10 13 4 10 10 37 14 58 l5 39 -34 -7 c-19 -3 -36 -11 -37 -17 -3
-6 -8 -6 -17 1 -9 8 -33 2 -89 -20 -75 -30 -120 -32 -81 -4 36 26 6 26 -41 0
-65 -37 -161 -34 -149 4 5 14 2 17 -14 13 -17 -4 -43 9 -90 43 -6 5 41 94 50
94 5 0 9 6 9 13 0 7 -20 18 -44 25 -56 14 -126 90 -126 134 0 42 13 61 68 100
57 41 98 52 107 29 6 -14 7 -14 16 2 6 10 22 17 41 17 45 0 31 6 -27 12 -27 3
-59 2 -70 -2z m-5 -455 c10 -12 10 -18 0 -30 -19 -23 -30 -18 -30 15 0 33 11
38 30 15z m514 -32 c-4 -16 -13 -37 -20 -48 -13 -18 -14 -18 -14 -1 0 15 -5
17 -27 11 -23 -5 -25 -4 -14 9 8 9 19 16 26 16 7 0 15 9 18 20 3 11 12 20 21
20 13 0 15 -6 10 -27z m-554 3 c0 -8 -7 -17 -16 -20 -25 -10 -30 2 -8 19 24
18 24 18 24 1z m450 -6 c-14 -11 -33 -20 -42 -20 -9 0 -20 -4 -23 -10 -7 -12
-45 -14 -45 -2 0 7 104 50 125 51 6 0 -1 -8 -15 -19z m-286 -28 c27 -3 34 -7
25 -13 -20 -13 -107 -11 -115 2 -9 15 17 31 36 22 8 -3 32 -8 54 -11z m126 8
c0 -5 -4 -10 -9 -10 -5 0 -18 -3 -28 -6 -16 -6 -16 -5 2 9 23 19 35 21 35 7z
m-250 -4 c0 -3 -4 -8 -10 -11 -5 -3 -10 -1 -10 4 0 6 5 11 10 11 6 0 10 -2 10
-4z m-69 -25 c-9 -15 -58 -41 -79 -41 -21 0 50 49 86 59 1 1 -2 -8 -7 -18z
m1129 3 c0 -6 -65 -34 -80 -34 -24 0 -7 17 28 27 48 14 52 14 52 7z m34 -35
c-20 -21 -30 -26 -35 -17 -11 17 29 58 48 51 11 -4 8 -12 -13 -34z m-444 16
c0 -10 -52 -25 -63 -18 -7 4 -3 9 9 14 23 9 54 11 54 4z m880 -55 c-45 -53
-47 -55 -69 -41 -12 8 -12 13 3 36 16 24 95 69 105 60 2 -2 -15 -27 -39 -55z
m-1510 35 c0 -8 -7 -15 -16 -15 -14 0 -14 3 -4 15 7 8 14 15 16 15 2 0 4 -7 4
-15z m30 5 c0 -5 -2 -10 -4 -10 -3 0 -8 5 -11 10 -3 6 -1 10 4 10 6 0 11 -4
11 -10z m380 -10 c-14 -11 -32 -26 -40 -32 -14 -13 -67 -38 -78 -38 -3 0 3 9
13 20 10 11 20 18 23 15 3 -2 20 9 39 25 18 17 41 30 51 30 14 -1 12 -5 -8
-20z m335 -5 c-42 -19 -66 -19 -41 0 11 8 31 15 45 14 26 -1 26 -1 -4 -14z
m937 -7 c-7 -7 -12 -8 -12 -2 0 6 3 14 7 17 3 4 9 5 12 2 2 -3 -1 -11 -7 -17z
m-722 -8 c-27 -21 -45 -26 -35 -9 6 9 41 27 55 28 3 0 -6 -8 -20 -19z m197 14
c-3 -3 -12 -4 -19 -1 -8 3 -5 6 6 6 11 1 17 -2 13 -5z m229 -9 c-8 -8 -23 -15
-33 -15 -14 1 -13 4 7 15 33 19 45 19 26 0z m-1563 -12 c-3 -10 -21 -35 -40
-56 -29 -33 -37 -48 -35 -68 1 -3 -10 -11 -23 -17 -34 -16 -31 -3 10 51 19 25
35 50 35 56 0 8 47 51 56 51 2 0 1 -8 -3 -17z m1071 2 c-25 -19 -40 -19 -24 0
7 8 20 15 28 15 13 0 12 -3 -4 -15z m386 10 c0 -8 -52 -26 -58 -20 -3 2 6 9
19 14 28 11 39 13 39 6z m-1047 -22 c-4 -10 -13 -29 -20 -43 -15 -30 -17 -64
-3 -55 6 3 10 1 10 -4 0 -17 34 -13 85 9 59 25 75 26 68 0 -6 -22 -16 -25 -88
-35 -27 -3 -63 -10 -80 -15 -16 -5 -66 -12 -109 -15 l-79 -7 24 29 c13 17 38
40 54 52 96 71 139 101 141 101 2 0 0 -8 -3 -17z m55 10 c-24 -49 -32 -63 -40
-63 -13 0 -9 24 8 48 14 20 41 32 32 15z m320 -10 c-5 -30 -178 -102 -178 -74
0 9 154 89 173 91 5 0 7 -8 5 -17z m217 -3 c-10 -17 -45 -32 -45 -20 0 6 10
15 23 20 29 12 29 12 22 0z m325 0 c-8 -5 -19 -10 -25 -10 -5 0 -3 5 5 10 8 5
20 10 25 10 6 0 3 -5 -5 -10z m272 -17 l-4 -28 -136 -3 c-137 -4 -153 2 -78
27 32 11 40 11 47 0 6 -10 13 -10 34 -1 14 7 46 12 70 12 24 0 47 5 50 10 12
19 21 10 17 -17z m165 5 c-3 -8 -6 -5 -6 6 -1 11 2 17 5 13 3 -3 4 -12 1 -19z
m-1096 -3 c-42 -19 -47 -19 -31 0 7 8 24 15 39 15 25 -1 25 -1 -8 -15z m479 0
c-7 -8 -20 -15 -29 -15 -13 1 -13 3 3 15 26 19 42 19 26 0z m99 11 c-20 -17
-67 -33 -79 -26 -12 7 -9 11 10 19 24 9 78 15 69 7z m610 -50 c-9 -8 -10 -7
-5 7 3 10 7 26 7 35 1 9 4 6 6 -7 3 -13 -1 -28 -8 -35z m-1594 -1 c-57 -46
-118 -89 -111 -76 11 18 130 110 136 105 2 -3 -9 -16 -25 -29z m307 8 c-98
-31 -131 -39 -127 -32 5 8 34 22 95 46 17 7 27 7 32 -1 4 -6 4 -12 0 -13z
m362 21 c9 -3 16 -12 16 -18 0 -7 12 -18 26 -24 17 -8 24 -18 21 -30 -3 -9 -8
-34 -12 -56 -4 -26 -18 -50 -42 -72 -42 -40 -40 -63 7 -85 27 -13 80 -17 240
-21 169 -4 190 -3 120 5 l-85 10 57 12 c57 12 87 22 168 58 35 15 164 57 177
57 2 0 3 -20 3 -45 0 -25 -4 -45 -10 -45 -5 0 -10 -5 -10 -11 0 -6 6 -9 13 -7
7 3 14 29 17 64 3 39 9 59 18 58 6 -1 38 -2 71 -2 l58 -2 7 -40 c8 -52 22 -44
36 23 6 28 17 66 25 82 13 29 13 29 14 6 4 -103 -104 -329 -213 -447 -89 -97
-149 -135 -280 -179 l-104 -35 -263 0 c-169 0 -302 5 -369 14 -135 19 -321 69
-368 101 -56 38 -128 131 -146 189 -21 65 -38 174 -31 186 11 19 25 10 25 -15
0 -31 39 -49 87 -42 18 3 33 1 35 -5 3 -7 60 -12 158 -14 l155 -3 -120 13
c-111 11 -117 13 -73 20 25 4 60 5 76 1 47 -10 327 68 415 116 15 8 17 4 17
-45 0 -78 -11 -86 -123 -87 -51 0 -114 -5 -142 -9 -32 -6 3 -7 100 -3 83 3
156 10 163 15 7 7 12 36 12 80 l0 70 43 -6 c23 -3 36 -3 29 0 -6 3 -10 10 -6
15 3 5 -13 9 -35 9 -40 0 -40 0 -47 46 -3 25 -12 51 -19 57 -24 22 50 56 89
41z m797 -35 c-14 -40 -14 -69 -1 -69 6 0 10 5 10 11 0 15 39 69 50 69 16 0
20 -32 9 -77 -11 -43 -13 -45 -42 -39 -16 3 -47 6 -68 6 -37 0 -39 1 -39 33 0
18 6 41 13 50 13 18 70 56 76 51 2 -2 -2 -17 -8 -35z m-1561 14 c0 -5 -16 -21
-35 -36 -25 -20 -35 -24 -35 -13 0 8 12 24 26 35 27 22 44 27 44 14z m945 -13
c-28 -12 -105 -12 -105 0 0 6 27 10 63 9 44 0 56 -3 42 -9z m335 -4 l185 -1 3
-25 c3 -20 1 -22 -10 -12 -9 7 -60 13 -135 14 -98 3 -124 0 -139 -13 -11 -9
-46 -21 -79 -29 -33 -7 -91 -20 -130 -30 -38 -10 -87 -21 -107 -25 -38 -6 -38
-6 -38 27 0 68 8 78 59 79 25 0 66 6 91 13 25 8 61 11 80 8 19 -3 118 -6 220
-6z m385 -52 c-4 -26 -12 -44 -19 -44 -11 0 -10 11 2 56 18 63 28 57 17 -12z
m-991 14 c5 -15 7 -30 4 -33 -7 -7 -75 9 -123 28 l-30 12 50 12 c70 16 88 13
99 -19z m770 -11 c11 -8 17 -23 14 -37 -2 -20 -13 -27 -53 -38 -27 -7 -93 -31
-145 -52 -126 -51 -286 -84 -363 -75 -85 9 -89 11 -81 54 8 47 19 56 79 69
122 24 331 75 345 83 24 14 184 11 204 -4z m-861 -18 c86 -26 102 -36 86 -55
-17 -21 -116 -63 -214 -90 -111 -32 -371 -52 -417 -33 l-29 12 23 24 c30 32
70 53 104 53 23 0 25 -3 20 -25 -6 -22 -3 -25 23 -25 39 0 49 18 17 30 -21 8
-37 30 -22 30 2 0 61 11 131 25 90 17 132 22 145 15 30 -16 48 -11 25 6 -15
12 -33 14 -74 9 -102 -13 -300 -54 -328 -69 -41 -21 -77 -62 -70 -80 7 -17
-10 -21 -30 -8 -6 4 -13 32 -15 62 l-3 55 35 7 c19 4 69 12 110 18 41 6 100
16 130 21 30 5 91 11 136 13 44 1 89 8 100 14 26 16 36 15 117 -9z m-576 -24
c-23 -22 -33 -18 -12 5 10 11 20 18 23 16 2 -3 -3 -12 -11 -21z m-67 -80 c0
-14 -4 -25 -10 -25 -5 0 -10 11 -10 25 0 14 5 25 10 25 6 0 10 -11 10 -25z
m865 -17 c-10 -44 -13 -48 -30 -41 -22 8 -18 40 7 57 30 21 31 21 23 -16z"/>
<path d="M1980 1294 c-76 -12 -141 -28 -147 -37 -4 -6 3 -8 18 -3 13 4 54 12
92 18 37 6 67 14 67 19 0 5 -1 8 -2 8 -2 -1 -14 -3 -28 -5z"/>
<path d="M1220 1126 c-76 -17 -150 -54 -150 -75 0 -25 42 -61 70 -61 13 0 31
7 41 16 16 14 22 13 78 -15 76 -39 114 -40 146 -5 43 46 28 116 -30 139 -41
18 -80 18 -155 1z m176 -31 c17 -22 18 -68 4 -96 -17 -30 -81 -25 -151 13
l-60 31 -20 -21 c-26 -28 -40 -28 -69 3 -13 14 -19 25 -13 25 6 0 27 12 48 26
47 32 101 44 184 40 49 -2 67 -6 77 -21z"/>
<path d="M1572 1378 c-18 -18 -14 -38 7 -38 27 0 37 19 19 36 -11 11 -16 12
-26 2z"/>
</g>
</svg>
